# xmcd
#
# Track frame offsets: 
#        150
#        23747
#        36806
#        52425
#        65893
#        78487
#        93877
#        108430
#        122825
#        136893
#        149206
#        162874
#        175725
#        192285
#        207204
#        217201
#        228759
#        242284
#
# Disc length: 3422 seconds
#
# Revision: 2
# Processed by: cddbd v1.5.2PL0 Copyright (c) Steve Scherf et al.
# Submitted via: ExactAudioCopy v1.0b3
#
DISCID=080d5c12
DTITLE=Dr. Hook - Best Of The 70's
DYEAR=2000
DGENRE=Pop - 1970s
TTITLE0=When You're In Love With A Beautiful Woman
TTITLE1=Sharing The Night Together
TTITLE2=Sexy Eyes
TTITLE3=The Millionaire
TTITLE4=Only Sixteen
TTITLE5=I Got Stoned And Missed It
TTITLE6=A Little Bit More
TTITLE7=If Not You
TTITLE8=A Couple More Years
TTITLE9=Making Love And Music
TTITLE10=Walk Right In
TTITLE11=Let The Loose End Drag
TTITLE12=More Like The Movies
TTITLE13=Jungle To The Zoo
TTITLE14=You Make My Pants Want to Get Up And Dance
TTITLE15=All The Time In The World
TTITLE16=Better Love Next Time
TTITLE17=Years From Now
EXTD=
EXTT0=
EXTT1=
EXTT2=
EXTT3=
EXTT4=
EXTT5=
EXTT6=
EXTT7=
EXTT8=
EXTT9=
EXTT10=
EXTT11=
EXTT12=
EXTT13=
EXTT14=
EXTT15=
EXTT16=
EXTT17=
PLAYORDER=
